<svg xmlns="http://www.w3.org/2000/svg" width="14" height="14" viewBox="0 0 14 14">
    <g fill="none" fill-rule="evenodd">
        <path d="M-1-1h16v16H-1z"/>
        <path fill="#F76969" d="M1.747 12.753c.029-2.684 1.426-4.348 4.19-4.99 3.142 0 4.68 1.672 4.612 5.015l-8.802-.025zM6.706 6.484a2.864 2.864 0 1 0 0-5.729 2.864 2.864 0 0 0 0 5.729z"/>
        <path fill="#FFF" d="M10.675 13.21a2.456 2.456 0 1 0 0-4.913 2.456 2.456 0 0 0 0 4.913z"/>
        <path fill="#F76969" d="M11.21 13.38a2.456 2.456 0 1 0 0-4.913 2.456 2.456 0 0 0 0 4.912z"/>
        <path fill="#000" fill-rule="nonzero" stroke="#000" stroke-width=".2" d="M10.734 7.88c-.498 0-.967.124-1.378.34a5.601 5.601 0 0 0-2.134-1.018C8.555 6.68 9.5 5.394 9.5 3.894 9.5 1.93 7.88.334 5.89.334c-1.99 0-3.61 1.597-3.61 3.56 0 1.51.958 2.801 2.306 3.318-2.44.596-4.254 2.78-4.254 5.375h.409c0-2.83 2.325-5.133 5.183-5.133 1.147 0 2.206.371 3.065.998a2.875 2.875 0 0 0-1.19 2.322c0 1.595 1.316 2.893 2.933 2.893 1.618 0 2.934-1.298 2.934-2.893 0-1.596-1.316-2.894-2.933-2.894zM5.89 7.051c-1.765 0-3.201-1.416-3.201-3.157S4.126.737 5.89.737c1.765 0 3.201 1.416 3.201 3.157 0 1.74-1.436 3.157-3.201 3.157zm4.843 6.213c-1.393 0-2.525-1.117-2.525-2.49 0-1.373 1.132-2.49 2.525-2.49 1.392 0 2.524 1.117 2.524 2.49 0 1.373-1.132 2.49-2.524 2.49z"/>
        <path fill="#FFF" fill-rule="nonzero" stroke="#FFF" stroke-width=".2" d="M10.864 9.222h-.372v1.99l1.007 1.185.263-.31-.898-1.056z"/>
    </g>
</svg>
