<svg width="499.99999999999994" height="499.99999999999994" xmlns="http://www.w3.org/2000/svg">

 <g>
  <title>background</title>
  <rect fill="none" id="canvas_background" height="402" width="582" y="-1" x="-1"/>
 </g>
 <g>
  <title>Layer 1</title>
  <path id="svg_1" fill-rule="evenodd" fill="#4f5b62" d="m31.949,431.711c0,20.079 16.264,36.341 36.34,36.341l363.421,0c20.078,0 36.34,-16.262 36.34,-36.341l0,-254.394c0,-20.079 -16.262,-36.342 -36.34,-36.342l-159.27,0l70.954,-70.958c8.731,-8.721 8.731,-22.803 0,-31.524c-8.725,-8.728 -22.804,-8.728 -31.519,0l-102.583,102.482l-0.443,0l-75.24,-75.226c-8.713,-8.727 -22.801,-8.727 -31.514,0c-8.731,8.722 -8.731,22.804 0,31.524l43.6,43.702l-77.405,0c-20.077,0 -36.34,16.264 -36.34,36.342l0,254.394l-0.001,0zm65.418,-245.31l223.5,0c11.081,0 19.986,8.905 19.986,19.991l0,196.241c0,11.084 -8.905,19.991 -19.986,19.991l-223.5,0c-11.083,0 -19.991,-8.907 -19.991,-19.991l0,-196.24c-0.001,-11.086 8.908,-19.992 19.991,-19.992zm279.831,22.716c0,-12.539 10.175,-22.716 22.711,-22.716c12.54,0 22.715,10.177 22.715,22.716c0,12.536 -10.175,22.713 -22.715,22.713c-12.536,0 -22.711,-10.177 -22.711,-22.713zm0,72.681c0,-12.535 10.175,-22.711 22.711,-22.711c12.54,0 22.715,10.176 22.715,22.711c0,12.541 -10.175,22.715 -22.715,22.715c-12.536,0 -22.711,-10.174 -22.711,-22.715z" clip-rule="evenodd"/>
 </g>
</svg>